<mxfile host="app.diagrams.net" agent="Mozilla/5.0 (Windows NT 10.0; Win64; x64) AppleWebKit/537.36 (KHTML, like Gecko) Chrome/132.0.0.0 Safari/537.36 Edg/132.0.0.0" version="26.0.9">
  <diagram name="Admins_Hierarchy" id="g5ykO5Ar1UCDYojkoSGH">
    <mxGraphModel dx="1619" dy="869" grid="1" gridSize="10" guides="1" tooltips="1" connect="1" arrows="1" fold="1" page="1" pageScale="1" pageWidth="2339" pageHeight="3300" math="0" shadow="0">
      <root>
        <mxCell id="0" />
        <mxCell id="1" parent="0" />
        <mxCell id="zyIHGosH6paho46t422g-4" value="" style="rounded=0;whiteSpace=wrap;html=1;" parent="1" vertex="1">
          <mxGeometry x="1001" y="560" width="200" height="40" as="geometry" />
        </mxCell>
        <mxCell id="zyIHGosH6paho46t422g-5" value="&lt;font style=&quot;font-size: 18px;&quot;&gt;Country Ad&lt;span style=&quot;background-color: transparent; color: light-dark(rgb(0, 0, 0), rgb(255, 255, 255));&quot;&gt;min - US&lt;/span&gt;&lt;/font&gt;" style="text;html=1;align=center;verticalAlign=middle;whiteSpace=wrap;rounded=0;" parent="1" vertex="1">
          <mxGeometry x="1012.25" y="565" width="177.5" height="30" as="geometry" />
        </mxCell>
        <mxCell id="zyIHGosH6paho46t422g-22" value="" style="rounded=0;whiteSpace=wrap;html=1;" parent="1" vertex="1">
          <mxGeometry x="1322.25" y="480" width="200" height="40" as="geometry" />
        </mxCell>
        <mxCell id="zyIHGosH6paho46t422g-23" value="&lt;font style=&quot;font-size: 18px;&quot;&gt;&lt;span style=&quot;background-color: transparent; color: light-dark(rgb(0, 0, 0), rgb(255, 255, 255));&quot;&gt;Application US - 001&lt;/span&gt;&lt;/font&gt;" style="text;html=1;align=center;verticalAlign=middle;whiteSpace=wrap;rounded=0;" parent="1" vertex="1">
          <mxGeometry x="1333.5" y="485" width="177.5" height="30" as="geometry" />
        </mxCell>
        <mxCell id="zyIHGosH6paho46t422g-25" value="" style="rounded=0;whiteSpace=wrap;html=1;" parent="1" vertex="1">
          <mxGeometry x="1322.25" y="560" width="200" height="40" as="geometry" />
        </mxCell>
        <mxCell id="zyIHGosH6paho46t422g-26" value="&lt;font style=&quot;font-size: 18px;&quot;&gt;&lt;span style=&quot;background-color: transparent; color: light-dark(rgb(0, 0, 0), rgb(255, 255, 255));&quot;&gt;Application US - 002&lt;/span&gt;&lt;/font&gt;" style="text;html=1;align=center;verticalAlign=middle;whiteSpace=wrap;rounded=0;" parent="1" vertex="1">
          <mxGeometry x="1333.5" y="565" width="177.5" height="30" as="geometry" />
        </mxCell>
        <mxCell id="zyIHGosH6paho46t422g-27" value="" style="rounded=0;whiteSpace=wrap;html=1;" parent="1" vertex="1">
          <mxGeometry x="1322.25" y="640" width="200" height="40" as="geometry" />
        </mxCell>
        <mxCell id="zyIHGosH6paho46t422g-28" value="&lt;font style=&quot;font-size: 18px;&quot;&gt;&lt;span style=&quot;background-color: transparent; color: light-dark(rgb(0, 0, 0), rgb(255, 255, 255));&quot;&gt;Application US - 003&lt;/span&gt;&lt;/font&gt;" style="text;html=1;align=center;verticalAlign=middle;whiteSpace=wrap;rounded=0;" parent="1" vertex="1">
          <mxGeometry x="1333.5" y="645" width="177.5" height="30" as="geometry" />
        </mxCell>
        <mxCell id="zyIHGosH6paho46t422g-29" value="" style="rounded=0;whiteSpace=wrap;html=1;" parent="1" vertex="1">
          <mxGeometry x="1322.25" y="720" width="200" height="40" as="geometry" />
        </mxCell>
        <mxCell id="zyIHGosH6paho46t422g-30" value="&lt;font style=&quot;font-size: 18px;&quot;&gt;&lt;span style=&quot;background-color: transparent; color: light-dark(rgb(0, 0, 0), rgb(255, 255, 255));&quot;&gt;Application CA - 001&lt;/span&gt;&lt;/font&gt;" style="text;html=1;align=center;verticalAlign=middle;whiteSpace=wrap;rounded=0;" parent="1" vertex="1">
          <mxGeometry x="1333.5" y="725" width="177.5" height="30" as="geometry" />
        </mxCell>
        <mxCell id="zyIHGosH6paho46t422g-31" value="" style="rounded=0;whiteSpace=wrap;html=1;" parent="1" vertex="1">
          <mxGeometry x="1322.25" y="800" width="200" height="40" as="geometry" />
        </mxCell>
        <mxCell id="zyIHGosH6paho46t422g-32" value="&lt;font style=&quot;font-size: 18px;&quot;&gt;&lt;span style=&quot;background-color: transparent; color: light-dark(rgb(0, 0, 0), rgb(255, 255, 255));&quot;&gt;Application UK - 001&lt;/span&gt;&lt;/font&gt;" style="text;html=1;align=center;verticalAlign=middle;whiteSpace=wrap;rounded=0;" parent="1" vertex="1">
          <mxGeometry x="1333.5" y="805" width="177.5" height="30" as="geometry" />
        </mxCell>
        <mxCell id="zyIHGosH6paho46t422g-33" value="" style="rounded=0;whiteSpace=wrap;html=1;" parent="1" vertex="1">
          <mxGeometry x="1322.25" y="880" width="200" height="40" as="geometry" />
        </mxCell>
        <mxCell id="zyIHGosH6paho46t422g-34" value="&lt;font style=&quot;font-size: 18px;&quot;&gt;&lt;span style=&quot;background-color: transparent; color: light-dark(rgb(0, 0, 0), rgb(255, 255, 255));&quot;&gt;Application DE - 001&lt;/span&gt;&lt;/font&gt;" style="text;html=1;align=center;verticalAlign=middle;whiteSpace=wrap;rounded=0;" parent="1" vertex="1">
          <mxGeometry x="1333.5" y="885" width="177.5" height="30" as="geometry" />
        </mxCell>
        <mxCell id="zyIHGosH6paho46t422g-35" value="" style="rounded=0;whiteSpace=wrap;html=1;" parent="1" vertex="1">
          <mxGeometry x="1322.25" y="960" width="200" height="40" as="geometry" />
        </mxCell>
        <mxCell id="zyIHGosH6paho46t422g-36" value="&lt;font style=&quot;font-size: 18px;&quot;&gt;&lt;span style=&quot;background-color: transparent; color: light-dark(rgb(0, 0, 0), rgb(255, 255, 255));&quot;&gt;Application DE - 002&lt;/span&gt;&lt;/font&gt;" style="text;html=1;align=center;verticalAlign=middle;whiteSpace=wrap;rounded=0;" parent="1" vertex="1">
          <mxGeometry x="1333.5" y="965" width="177.5" height="30" as="geometry" />
        </mxCell>
        <mxCell id="zyIHGosH6paho46t422g-37" value="" style="shape=curlyBracket;whiteSpace=wrap;html=1;rounded=1;labelPosition=left;verticalLabelPosition=middle;align=right;verticalAlign=middle;" parent="1" vertex="1">
          <mxGeometry x="1261" y="480" width="20" height="200" as="geometry" />
        </mxCell>
        <mxCell id="zyIHGosH6paho46t422g-38" value="" style="shape=curlyBracket;whiteSpace=wrap;html=1;rounded=1;labelPosition=left;verticalLabelPosition=middle;align=right;verticalAlign=middle;" parent="1" vertex="1">
          <mxGeometry x="1261" y="720" width="20" height="40" as="geometry" />
        </mxCell>
        <mxCell id="zyIHGosH6paho46t422g-39" value="" style="shape=curlyBracket;whiteSpace=wrap;html=1;rounded=1;labelPosition=left;verticalLabelPosition=middle;align=right;verticalAlign=middle;" parent="1" vertex="1">
          <mxGeometry x="1261" y="800" width="20" height="40" as="geometry" />
        </mxCell>
        <mxCell id="zyIHGosH6paho46t422g-40" value="" style="shape=curlyBracket;whiteSpace=wrap;html=1;rounded=1;labelPosition=left;verticalLabelPosition=middle;align=right;verticalAlign=middle;" parent="1" vertex="1">
          <mxGeometry x="1261" y="880" width="20" height="120" as="geometry" />
        </mxCell>
        <mxCell id="zyIHGosH6paho46t422g-41" value="" style="shape=curlyBracket;whiteSpace=wrap;html=1;rounded=1;labelPosition=left;verticalLabelPosition=middle;align=right;verticalAlign=middle;" parent="1" vertex="1">
          <mxGeometry x="901" y="485" width="20" height="280" as="geometry" />
        </mxCell>
        <mxCell id="zyIHGosH6paho46t422g-42" value="" style="shape=curlyBracket;whiteSpace=wrap;html=1;rounded=1;labelPosition=left;verticalLabelPosition=middle;align=right;verticalAlign=middle;" parent="1" vertex="1">
          <mxGeometry x="901" y="795" width="20" height="200" as="geometry" />
        </mxCell>
        <mxCell id="zyIHGosH6paho46t422g-43" value="" style="shape=curlyBracket;whiteSpace=wrap;html=1;rounded=1;labelPosition=left;verticalLabelPosition=middle;align=right;verticalAlign=middle;" parent="1" vertex="1">
          <mxGeometry x="620" y="480" width="20" height="520" as="geometry" />
        </mxCell>
        <mxCell id="zyIHGosH6paho46t422g-46" value="" style="rounded=0;whiteSpace=wrap;html=1;" parent="1" vertex="1">
          <mxGeometry x="1001" y="720" width="200" height="40" as="geometry" />
        </mxCell>
        <mxCell id="zyIHGosH6paho46t422g-47" value="&lt;font style=&quot;font-size: 18px;&quot;&gt;Country Ad&lt;span style=&quot;background-color: transparent; color: light-dark(rgb(0, 0, 0), rgb(255, 255, 255));&quot;&gt;min - CA&lt;/span&gt;&lt;/font&gt;" style="text;html=1;align=center;verticalAlign=middle;whiteSpace=wrap;rounded=0;" parent="1" vertex="1">
          <mxGeometry x="1012.25" y="725" width="177.5" height="30" as="geometry" />
        </mxCell>
        <mxCell id="zyIHGosH6paho46t422g-48" value="" style="rounded=0;whiteSpace=wrap;html=1;" parent="1" vertex="1">
          <mxGeometry x="1001" y="805" width="200" height="40" as="geometry" />
        </mxCell>
        <mxCell id="zyIHGosH6paho46t422g-49" value="&lt;font style=&quot;font-size: 18px;&quot;&gt;Country Ad&lt;span style=&quot;background-color: transparent; color: light-dark(rgb(0, 0, 0), rgb(255, 255, 255));&quot;&gt;min - UK&lt;/span&gt;&lt;/font&gt;" style="text;html=1;align=center;verticalAlign=middle;whiteSpace=wrap;rounded=0;" parent="1" vertex="1">
          <mxGeometry x="1012.25" y="810" width="177.5" height="30" as="geometry" />
        </mxCell>
        <mxCell id="zyIHGosH6paho46t422g-50" value="" style="rounded=0;whiteSpace=wrap;html=1;" parent="1" vertex="1">
          <mxGeometry x="1001" y="920" width="200" height="40" as="geometry" />
        </mxCell>
        <mxCell id="zyIHGosH6paho46t422g-51" value="&lt;font style=&quot;font-size: 18px;&quot;&gt;Country Ad&lt;span style=&quot;background-color: transparent; color: light-dark(rgb(0, 0, 0), rgb(255, 255, 255));&quot;&gt;min - DE&lt;/span&gt;&lt;/font&gt;" style="text;html=1;align=center;verticalAlign=middle;whiteSpace=wrap;rounded=0;" parent="1" vertex="1">
          <mxGeometry x="1012.25" y="925" width="177.5" height="30" as="geometry" />
        </mxCell>
        <mxCell id="zyIHGosH6paho46t422g-54" value="" style="rounded=0;whiteSpace=wrap;html=1;" parent="1" vertex="1">
          <mxGeometry x="680" y="601" width="200" height="40" as="geometry" />
        </mxCell>
        <mxCell id="zyIHGosH6paho46t422g-55" value="&lt;span style=&quot;font-size: 18px;&quot;&gt;Region Ad&lt;/span&gt;&lt;span style=&quot;color: light-dark(rgb(0, 0, 0), rgb(255, 255, 255)); font-size: 18px; background-color: transparent;&quot;&gt;min - NAM&lt;/span&gt;" style="text;html=1;align=center;verticalAlign=middle;whiteSpace=wrap;rounded=0;" parent="1" vertex="1">
          <mxGeometry x="691.25" y="606" width="177.5" height="30" as="geometry" />
        </mxCell>
        <mxCell id="zyIHGosH6paho46t422g-56" value="" style="rounded=0;whiteSpace=wrap;html=1;" parent="1" vertex="1">
          <mxGeometry x="680" y="880" width="200" height="40" as="geometry" />
        </mxCell>
        <mxCell id="zyIHGosH6paho46t422g-57" value="&lt;span style=&quot;font-size: 18px;&quot;&gt;Region Ad&lt;/span&gt;&lt;span style=&quot;color: light-dark(rgb(0, 0, 0), rgb(255, 255, 255)); font-size: 18px; background-color: transparent;&quot;&gt;min - EU&lt;/span&gt;" style="text;html=1;align=center;verticalAlign=middle;whiteSpace=wrap;rounded=0;" parent="1" vertex="1">
          <mxGeometry x="691.25" y="885" width="177.5" height="30" as="geometry" />
        </mxCell>
        <mxCell id="zyIHGosH6paho46t422g-62" value="" style="rounded=0;whiteSpace=wrap;html=1;" parent="1" vertex="1">
          <mxGeometry x="360" y="720" width="200" height="40" as="geometry" />
        </mxCell>
        <mxCell id="zyIHGosH6paho46t422g-63" value="&lt;span style=&quot;font-size: 18px;&quot;&gt;Global Ad&lt;/span&gt;&lt;span style=&quot;color: light-dark(rgb(0, 0, 0), rgb(255, 255, 255)); font-size: 18px; background-color: transparent;&quot;&gt;min&lt;/span&gt;" style="text;html=1;align=center;verticalAlign=middle;whiteSpace=wrap;rounded=0;" parent="1" vertex="1">
          <mxGeometry x="371.25" y="725" width="177.5" height="30" as="geometry" />
        </mxCell>
        <mxCell id="zyIHGosH6paho46t422g-64" value="" style="endArrow=none;html=1;rounded=0;" parent="1" target="zyIHGosH6paho46t422g-43" edge="1">
          <mxGeometry width="50" height="50" relative="1" as="geometry">
            <mxPoint x="560" y="740" as="sourcePoint" />
            <mxPoint x="610" y="690" as="targetPoint" />
          </mxGeometry>
        </mxCell>
        <mxCell id="zyIHGosH6paho46t422g-65" value="" style="endArrow=none;html=1;rounded=0;entryX=0.1;entryY=0.5;entryDx=0;entryDy=0;entryPerimeter=0;" parent="1" target="zyIHGosH6paho46t422g-41" edge="1">
          <mxGeometry width="50" height="50" relative="1" as="geometry">
            <mxPoint x="880" y="624.71" as="sourcePoint" />
            <mxPoint x="940" y="624.71" as="targetPoint" />
          </mxGeometry>
        </mxCell>
        <mxCell id="zyIHGosH6paho46t422g-66" value="" style="endArrow=none;html=1;rounded=0;entryX=0.1;entryY=0.5;entryDx=0;entryDy=0;entryPerimeter=0;" parent="1" edge="1">
          <mxGeometry width="50" height="50" relative="1" as="geometry">
            <mxPoint x="880" y="894.83" as="sourcePoint" />
            <mxPoint x="903" y="895.12" as="targetPoint" />
          </mxGeometry>
        </mxCell>
        <mxCell id="zyIHGosH6paho46t422g-67" value="" style="endArrow=none;html=1;rounded=0;entryX=0.1;entryY=0.5;entryDx=0;entryDy=0;entryPerimeter=0;" parent="1" target="zyIHGosH6paho46t422g-37" edge="1">
          <mxGeometry width="50" height="50" relative="1" as="geometry">
            <mxPoint x="1201" y="579.85" as="sourcePoint" />
            <mxPoint x="1224" y="580.14" as="targetPoint" />
          </mxGeometry>
        </mxCell>
        <mxCell id="zyIHGosH6paho46t422g-68" value="" style="endArrow=none;html=1;rounded=0;entryX=0.1;entryY=0.5;entryDx=0;entryDy=0;entryPerimeter=0;" parent="1" edge="1">
          <mxGeometry width="50" height="50" relative="1" as="geometry">
            <mxPoint x="1201" y="739.86" as="sourcePoint" />
            <mxPoint x="1263" y="740.01" as="targetPoint" />
          </mxGeometry>
        </mxCell>
        <mxCell id="zyIHGosH6paho46t422g-69" value="" style="endArrow=none;html=1;rounded=0;entryX=0.1;entryY=0.5;entryDx=0;entryDy=0;entryPerimeter=0;" parent="1" edge="1">
          <mxGeometry width="50" height="50" relative="1" as="geometry">
            <mxPoint x="1201" y="819.86" as="sourcePoint" />
            <mxPoint x="1263" y="820.01" as="targetPoint" />
          </mxGeometry>
        </mxCell>
        <mxCell id="zyIHGosH6paho46t422g-70" value="" style="endArrow=none;html=1;rounded=0;entryX=0.1;entryY=0.5;entryDx=0;entryDy=0;entryPerimeter=0;" parent="1" edge="1">
          <mxGeometry width="50" height="50" relative="1" as="geometry">
            <mxPoint x="1201" y="939.86" as="sourcePoint" />
            <mxPoint x="1263" y="940.01" as="targetPoint" />
          </mxGeometry>
        </mxCell>
      </root>
    </mxGraphModel>
  </diagram>
</mxfile>
